<?xml version="1.0" encoding="UTF-8"?>
<!-- Generator: visioncortex VTracer 0.6.4 -->
<svg version="1.1" xmlns="http://www.w3.org/2000/svg" width="311" height="385">
    <path d="M0 0 C23.28 10.56 43.93 26.94 57.27 48.98 C57.66 49.62 58.06 50.27 58.47 50.94 C65.35 62.32 71.59 74.06 77.83 85.8 C81.72 93.11 85.67 100.38 89.83 107.54 C92.27 111.77 92.27 111.77 92.27 113.98 C93.29 114.04 93.29 114.04 94.34 114.1 C147.55 117.32 147.55 117.32 162.83 133.73 C164.86 138.31 165.23 142.05 164.27 146.98 C158.45 160.07 145.4 168.45 133.08 174.58 C132.18 175.03 131.28 175.48 130.35 175.94 C129.66 176.28 128.98 176.63 128.27 176.98 C128.27 178.11 128.27 178.11 128.27 179.27 C128.23 197.74 128.17 216.22 128.09 234.69 C128.05 243.62 128.01 252.55 128 261.49 C127.99 269.28 127.96 277.07 127.91 284.86 C127.89 288.98 127.88 293.1 127.88 297.22 C127.88 301.11 127.86 304.99 127.83 308.88 C127.82 310.3 127.82 311.72 127.82 313.14 C127.87 326.03 125.54 336.58 116.27 345.98 C103.28 357.26 86.72 363.58 70.27 367.98 C69.36 368.24 69.36 368.24 68.43 368.5 C59.18 370.77 49.59 370.35 40.12 370.38 C39.16 370.39 38.19 370.39 37.19 370.4 C32.06 370.43 26.92 370.45 21.79 370.46 C16.55 370.47 11.31 370.52 6.07 370.57 C1.99 370.61 -2.1 370.62 -6.18 370.62 C-8.11 370.63 -10.04 370.65 -11.96 370.67 C-34.94 370.97 -60.56 364.76 -78.73 349.98 C-79.45 349.43 -80.16 348.89 -80.9 348.33 C-88.51 342.24 -93.05 334.6 -94.73 324.98 C-95.02 321 -95.04 317.04 -95.05 313.05 C-95.06 311.88 -95.07 310.71 -95.08 309.5 C-95.11 305.65 -95.13 301.8 -95.14 297.95 C-95.16 295.27 -95.18 292.59 -95.2 289.91 C-95.25 283.59 -95.29 277.27 -95.32 270.95 C-95.36 263.76 -95.41 256.56 -95.46 249.36 C-95.56 234.57 -95.65 219.77 -95.73 204.98 C-96.41 204.78 -97.09 204.59 -97.79 204.39 C-100.92 203.5 -104.05 202.6 -107.17 201.7 C-108.78 201.24 -108.78 201.24 -110.41 200.77 C-136.39 193.27 -136.39 193.27 -144.73 183.98 C-145.62 182.03 -145.62 182.03 -145.73 179.98 C-132.72 153.23 -84.87 138.52 -59.24 129.53 C-31.62 120.02 -31.62 120.02 -20.73 117.98 C-35.61 117.47 -49.35 119.11 -63.63 123.43 C-65.73 123.98 -65.73 123.98 -68.73 123.98 C-67.99 110.43 -64.37 97.76 -54.73 87.98 C-53.8 86.98 -52.87 85.99 -51.93 84.99 C-45.72 78.46 -39.23 73 -31.73 67.98 C-41.54 70.3 -50.81 74.7 -58.73 80.98 C-60.05 78.34 -59.49 77.32 -58.76 74.49 C-58.4 73.1 -58.4 73.1 -58.04 71.69 C-57.77 70.69 -57.51 69.69 -57.23 68.66 C-56.96 67.65 -56.69 66.63 -56.42 65.58 C-53.63 55.23 -50.27 45.09 -46.73 34.98 C-47.84 36.06 -48.94 37.15 -50.04 38.23 C-50.65 38.84 -51.27 39.44 -51.9 40.07 C-53.67 41.91 -55.23 43.83 -56.79 45.85 C-64.79 55.06 -81.49 65.16 -93.73 66.98 C-95.98 66.04 -95.98 66.04 -97.73 64.98 C-97.25 59.7 -95.26 56.01 -92.42 51.66 C-91.97 50.97 -91.53 50.28 -91.07 49.56 C-79.74 32.06 -67.39 15.47 -52.73 0.6 C-52.12 -0.02 -51.51 -0.65 -50.88 -1.29 C-36.27 -15.75 -16.52 -7.21 0 0 Z "
          fill="#07346D" transform="translate(145.73046875,15.0234375)"/>
    <path d="M0 0 C3.32 -0.39 4.63 -0.28 7.35 1.76 C8.1 2.54 8.85 3.32 9.62 4.12 C10.38 4.89 11.14 5.66 11.91 6.45 C17.22 12.94 17.44 18.41 17.4 26.5 C17.4 28.16 17.4 28.16 17.41 29.85 C17.41 32.19 17.4 34.52 17.39 36.86 C17.38 40.42 17.39 43.98 17.41 47.55 C17.41 49.82 17.4 52.1 17.4 54.37 C17.4 55.43 17.41 56.49 17.42 57.59 C17.33 66.44 15.34 72.36 9.26 78.96 C0.91 86.5 -9.64 90.95 -20 95 C-21.22 95.5 -22.44 96 -23.7 96.51 C-45.49 104.59 -70.95 105.74 -94 105 C-94.79 104.98 -95.58 104.95 -96.39 104.93 C-98.8 104.84 -101.21 104.74 -103.62 104.62 C-104.35 104.59 -105.07 104.56 -105.81 104.53 C-110.77 104.25 -115.2 103.26 -120 102 C-121.89 101.75 -123.79 101.52 -125.69 101.31 C-142.95 98.74 -164.51 91.81 -176 78 C-180.96 71.19 -180.47 64.13 -180.25 56 C-180.23 54.75 -180.21 53.5 -180.2 52.21 C-180.15 49.14 -180.08 46.07 -180 43 C-176.06 42.71 -172.13 42.48 -168.19 42.25 C-167.09 42.17 -165.99 42.09 -164.85 42 C-158.02 41.64 -152.97 42.32 -146.65 44.94 C-142.33 46.67 -137.85 47.62 -133.31 48.62 C-132.45 48.83 -131.58 49.03 -130.69 49.24 C-115.9 52.58 -101.35 53.38 -86.25 53.31 C-85.37 53.31 -84.49 53.31 -83.58 53.31 C-70.83 53.26 -58.46 52.9 -46 50 C-44.81 49.74 -44.81 49.74 -43.61 49.48 C-26.38 45.69 -8.84 39.78 2 25 C4.5 20.66 4.66 16.92 4 12 C3.1 9.27 2.06 6.69 0.88 4.07 C0 2 0 2 0 0 Z "
          fill="#FBFCFC" transform="translate(244,159)"/>
    <path d="M0 0 C0.1 4.98 0.17 9.96 0.22 14.94 C0.24 16.63 0.27 18.32 0.3 20.02 C0.35 22.46 0.37 24.9 0.39 27.34 C0.41 28.09 0.43 28.84 0.45 29.6 C0.46 36.22 -1.78 41.12 -5.79 46.32 C-18.49 58.8 -35.1 63.89 -52 68 C-53.86 68.5 -53.86 68.5 -55.75 69.01 C-94.45 78.62 -145.46 76.18 -180.38 56 C-188.53 50.88 -194.37 45.62 -197 36 C-197.16 33.36 -197.23 30.83 -197.2 28.2 C-197.19 27.47 -197.19 26.75 -197.19 26 C-197.18 23.71 -197.15 21.42 -197.12 19.12 C-197.11 17.56 -197.11 16 -197.1 14.44 C-197.08 10.62 -197.04 6.81 -197 3 C-196.34 3 -195.68 3 -195 3 C-194.27 3.74 -193.54 4.49 -192.79 5.25 C-171.46 26.3 -132.82 29.57 -104.61 29.46 C-103.19 29.45 -103.19 29.45 -101.75 29.44 C-100.77 29.44 -99.8 29.43 -98.79 29.43 C-83.55 29.37 -68.88 28.56 -54 25 C-53.31 24.84 -52.61 24.68 -51.9 24.51 C-47.85 23.55 -43.93 22.36 -40 21 C-39.37 20.79 -38.74 20.57 -38.09 20.35 C-25.13 15.92 -13.35 10.45 -2.83 1.5 C-1 0 -1 0 0 0 Z "
          fill="#FBFBFC" transform="translate(261,301)"/>
    <path d="M0 0 C0.33 0 0.66 0 1 0 C1.15 5.09 1.26 10.17 1.33 15.26 C1.36 16.99 1.4 18.71 1.45 20.44 C2 39.15 2 39.15 -5 47 C-18.41 60.85 -40.24 66.59 -58.5 70.19 C-59.34 70.35 -60.18 70.52 -61.05 70.69 C-74.34 73.17 -87.74 73.21 -101.22 73.24 C-104.16 73.25 -107.11 73.28 -110.06 73.31 C-125.51 73.4 -140.29 71.92 -155.12 67.31 C-155.95 67.06 -156.77 66.81 -157.62 66.55 C-171.35 62.14 -186.65 55.77 -194.12 42.8 C-196.17 38.61 -196.13 34.82 -196.1 30.27 C-196.1 29.52 -196.09 28.77 -196.09 28 C-196.09 25.6 -196.08 23.21 -196.06 20.81 C-196.06 19.19 -196.05 17.56 -196.05 15.94 C-196.04 11.96 -196.02 7.98 -196 4 C-195.34 4 -194.68 4 -194 4 C-193.34 4.7 -192.68 5.4 -192 6.12 C-180.51 17.98 -162.52 22.38 -147 26 C-145.97 26.24 -145.97 26.24 -144.93 26.49 C-135.02 28.8 -125.42 30.14 -115.25 30.2 C-114.04 30.21 -114.04 30.21 -112.8 30.22 C-76.41 30.47 -34.82 28.87 -5 5 C-3.33 3.34 -1.66 1.67 0 0 Z "
          fill="#FBFBFC" transform="translate(260,245)"/>
    <path d="M0 0 C2.26 2.26 2.53 3.39 3.3 6.44 C3.53 7.33 3.76 8.22 4 9.14 C4.25 10.08 4.5 11.03 4.75 12 C7.53 22.09 10.35 31.46 19.4 37.63 C24.69 40.42 30.33 42.34 35.97 44.29 C39.33 45.47 42.66 46.74 46 48 C46 48.99 46 49.98 46 51 C44.74 51.38 43.49 51.75 42.2 52.14 C22.73 57.66 22.73 57.66 9.5 72.19 C5.72 79.97 4.02 88.63 2 97 C1.01 97 0.02 97 -1 97 C-1.16 96.44 -1.31 95.88 -1.47 95.31 C-2.2 92.72 -2.94 90.14 -3.69 87.56 C-4.05 86.24 -4.05 86.24 -4.43 84.9 C-7.38 74.77 -11.88 64.92 -21.48 59.63 C-30.29 55.72 -39.7 53.43 -49 51 C-49 50.01 -49 49.02 -49 48 C-47.97 47.72 -47.97 47.72 -46.92 47.44 C-43.78 46.58 -40.64 45.69 -37.5 44.81 C-36.42 44.52 -35.34 44.23 -34.23 43.93 C-24.61 41.2 -15.8 37.42 -10.5 28.47 C-7.19 22.18 -4.81 15.84 -2.86 9.01 C-1.99 5.97 -1.02 2.99 0 0 Z "
          fill="#F38825" transform="translate(265,4)"/>
    <path d="M0 0 C0.77 -0 1.55 -0 2.34 -0 C3.97 -0 5.59 -0 7.21 0 C9.68 0.01 12.15 0 14.62 -0 C16.21 -0 17.79 -0 19.38 0 C20.47 -0 20.47 -0 21.59 -0.01 C25.68 0.01 29.54 0.34 33.55 1.13 C33.55 1.46 33.55 1.79 33.55 2.13 C32.5 2.23 31.44 2.33 30.36 2.43 C12.34 4.2 -5.12 7.96 -22.7 12.2 C-23.77 12.45 -23.77 12.45 -24.86 12.72 C-31.8 14.39 -38.69 16.07 -45.44 18.44 C-49.08 19.7 -52.8 20.74 -56.51 21.82 C-61.98 23.43 -67.43 25.1 -72.82 26.98 C-90.73 33.24 -109 37.75 -127.45 42.13 C-128.31 42.35 -129.17 42.56 -130.05 42.78 C-136.44 44.31 -142.92 44.99 -149.45 45.7 C-150.57 45.82 -151.69 45.95 -152.85 46.08 C-155.06 46.32 -157.26 46.56 -159.47 46.8 C-161.23 47 -163 47.21 -164.76 47.44 C-171.76 48.35 -178.76 48.28 -185.82 48.26 C-187.07 48.26 -188.32 48.27 -189.61 48.27 C-196.94 48.26 -204.16 47.96 -211.45 47.13 C-208.97 44.66 -207.85 44.72 -204.43 44.31 C-203.36 44.17 -202.29 44.03 -201.2 43.89 C-200.02 43.74 -198.84 43.6 -197.63 43.45 C-156.64 37.91 -116.77 27.99 -77.2 16.07 C-76.38 15.83 -75.57 15.58 -74.74 15.33 C-69.88 13.87 -69.88 13.87 -65.03 12.39 C-44.33 6.01 -21.76 -0.06 0 0 Z "
          fill="#F1F2F6" transform="translate(244.4453125,144.8671875)"/>
    <path d="M0 0 C0.1 4.98 0.17 9.96 0.22 14.94 C0.24 16.63 0.27 18.32 0.3 20.02 C0.35 22.46 0.37 24.9 0.39 27.34 C0.41 28.09 0.43 28.84 0.45 29.6 C0.46 36.22 -1.78 41.12 -5.79 46.32 C-15.58 55.94 -28.33 62.19 -41.74 65.08 C-42.54 65.25 -43.34 65.43 -44.17 65.61 C-44.77 65.74 -45.38 65.87 -46 66 C-45.99 64.77 -45.99 63.54 -45.98 62.27 C-45.97 57.71 -45.95 53.15 -45.95 48.59 C-45.94 46.62 -45.93 44.64 -45.92 42.67 C-45.91 39.83 -45.91 37 -45.9 34.16 C-45.9 33.28 -45.89 32.39 -45.89 31.48 C-45.75 27.1 -45.75 27.1 -47 23 C-46.25 22.79 -45.49 22.58 -44.72 22.37 C-32.82 18.92 -9.34 0 0 0 Z "
          fill="#D4D7DC" transform="translate(261,301)"/>
    <path d="M0 0 C0.15 5.09 0.26 10.17 0.33 15.26 C0.36 16.99 0.4 18.71 0.45 20.44 C1 39.15 1 39.15 -6 47 C-16.6 57.96 -32.57 63.35 -47 67 C-46.96 65.77 -46.93 64.54 -46.89 63.27 C-46.76 58.71 -46.64 54.15 -46.52 49.59 C-46.46 47.62 -46.41 45.64 -46.35 43.67 C-46.27 40.83 -46.19 38 -46.12 35.16 C-46.09 34.28 -46.07 33.39 -46.04 32.48 C-45.78 28.1 -45.78 28.1 -47 24 C-45.89 23.66 -44.77 23.32 -43.62 22.97 C-28.69 18.28 -13.53 12.71 -2.33 1.3 C-1 0 -1 0 0 0 Z "
          fill="#D1D5DA" transform="translate(261,245)"/>
    <path d="M0 0 C0.33 0 0.66 0 1 0 C1.07 5.71 1.13 11.42 1.16 17.13 C1.18 19.07 1.2 21.01 1.23 22.95 C1.26 25.75 1.28 28.55 1.29 31.35 C1.31 32.21 1.32 33.07 1.34 33.96 C1.34 42.16 -1.15 47.9 -6.74 53.96 C-17.68 63.84 -32.16 68.85 -46 73 C-45.67 59.14 -45.34 45.28 -45 31 C-41.04 29.51 -41.04 29.51 -37 28 C-14.36 18.86 -14.36 18.86 0 0 Z "
          fill="#D4D7DB" transform="translate(260,184)"/>
    <path d="M0 0 C0.66 0 1.32 0 2 0 C2.38 1.16 2.76 2.32 3.15 3.51 C6.62 13.2 6.62 13.2 14.32 19.46 C18.46 21.03 22.67 22.1 27 23 C25.5 26.73 23.31 28.52 20.25 31.06 C16.82 34.3 16.82 34.3 15.82 38.71 C16.32 41.48 16.32 41.48 17.15 44.03 C18.28 47.98 18.63 51.92 19 56 C17.84 55.41 16.68 54.82 15.49 54.21 C13.95 53.45 12.41 52.7 10.88 51.94 C10.11 51.55 9.35 51.16 8.57 50.76 C3.98 48.52 1.07 47.31 -4 49 C-6.53 50.13 -8.94 51.28 -11.38 52.56 C-12.02 52.89 -12.66 53.22 -13.32 53.56 C-14.88 54.37 -16.44 55.18 -18 56 C-17.34 49.14 -15.76 42.66 -14 36 C-14.61 35.72 -15.22 35.44 -15.84 35.15 C-18.78 33.58 -20.71 31.4 -23 29 C-24.14 27.92 -24.14 27.92 -25.31 26.81 C-27 25 -27 25 -27 23 C-26.3 22.82 -25.6 22.64 -24.88 22.45 C-23.93 22.2 -22.98 21.95 -22 21.69 C-20.61 21.32 -20.61 21.32 -19.19 20.95 C-18.14 20.64 -17.08 20.32 -16 20 C-15.01 19.77 -15.01 19.77 -14 19.53 C-10.8 18.62 -8.65 17.87 -6.61 15.17 C-5.43 12.92 -4.44 10.67 -3.5 8.31 C-3.15 7.52 -2.81 6.72 -2.45 5.9 C-1.61 3.94 -0.8 1.97 0 0 Z "
          fill="#F1831F" transform="translate(173,67)"/>
    <path d="M0 0 C2.22 0.37 2.22 0.37 4.67 0.41 C5.56 0.45 6.45 0.49 7.37 0.53 C8.3 0.56 9.23 0.59 10.19 0.62 C11.13 0.66 12.07 0.7 13.04 0.74 C15.36 0.84 17.68 0.92 20 1 C20 1.33 20 1.66 20 2 C16.07 2.03 12.14 2.04 8.21 2.05 C6.23 2.06 4.25 2.08 2.28 2.09 C-5.21 2.11 -12.56 1.86 -20 1 C-15.62 -3.38 -4.89 -3.26 0 0 Z "
          fill="#B4C1D5" transform="translate(53,191)"/>
    <path d="M0 0 C0.66 0.33 1.32 0.66 2 1 C-3.03 6.78 -8.04 12.18 -14 17 C-14.66 16.67 -15.32 16.34 -16 16 C-10.72 10.72 -5.44 5.44 0 0 Z "
          fill="#2E5180" transform="translate(100,9)"/>
    <path d="M0 0 C2.13 0.4 2.13 0.4 4 1 C2.71 2.34 1.42 3.67 0.12 5 C-0.59 5.74 -1.31 6.49 -2.05 7.25 C-4 9 -4 9 -6 9 C-4.7 5.11 -3.29 2.52 0 0 Z "
          fill="#345584" transform="translate(9,184)"/>
    <path d="M0 0 C-1.98 0.99 -1.98 0.99 -4 2 C-3.67 2.99 -3.34 3.98 -3 5 C-5.64 4.67 -8.28 4.34 -11 4 C-11 3.01 -11 2.02 -11 1 C-3.57 -1.43 -3.57 -1.43 0 0 Z "
          fill="#F4AB64" transform="translate(227,51)"/>
    <path d="M0 0 C0.66 0 1.32 0 2 0 C-0.05 4.84 -3.04 9.04 -7.81 11.38 C-8.53 11.58 -9.26 11.79 -10 12 C-9.61 11.55 -9.23 11.11 -8.83 10.64 C-8.31 10.04 -7.79 9.44 -7.25 8.81 C-6.7 8.18 -6.16 7.54 -5.59 6.89 C-4.27 5.32 -3 3.7 -1.75 2.06 C-0.88 1.04 -0.88 1.04 0 0 Z "
          fill="#183965" transform="translate(200,90)"/>
    <path d="M0 0 C3.01 3.01 2.6 5.82 3 10 C2.67 9.34 2.34 8.68 2 8 C1.34 8 0.68 8 0 8 C-0.66 8.66 -1.32 9.32 -2 10 C-1.86 8.52 -1.71 7.04 -1.56 5.56 C-1.48 4.74 -1.4 3.92 -1.32 3.07 C-1 1 -1 1 0 0 Z "
          fill="#F2AA6A" transform="translate(265,4)"/>
    <path d="M0 0 C1.26 3.77 0.37 5.37 -1 9 C-1.66 8.67 -2.32 8.34 -3 8 C-3.41 5.68 -3.74 3.34 -4 1 C-2.68 1.33 -1.36 1.66 0 2 C0 1.34 0 0.68 0 0 Z "
          fill="#F4AF6F" transform="translate(267,93)"/>
    <path d="M0 0 C-1.42 2.84 -3.19 3.59 -6 5 C-8.81 5.19 -8.81 5.19 -11 5 C-4.64 0 -4.64 0 0 0 Z " fill="#4C6791"
          transform="translate(60,156)"/>
    <path d="M0 0 C-0.33 0.99 -0.66 1.98 -1 3 C-0.34 3.33 0.32 3.66 1 4 C-1.31 3.67 -3.62 3.34 -6 3 C-6 2.01 -6 1.02 -6 0 C-3 -1 -3 -1 0 0 Z "
          fill="#F67F14" transform="translate(227,52)"/>
    <path d="M0 0 C0.33 0 0.66 0 1 0 C1.1 0.95 1.21 1.9 1.31 2.88 C1.69 6.29 1.69 6.29 5 8 C3.02 8.33 1.04 8.66 -1 9 C-0.67 6.03 -0.34 3.06 0 0 Z "
          fill="#6E82A5" transform="translate(78,130)"/>
    <path d="M0 0 C-2.59 2.59 -4.4 2.7 -8 3 C-8.66 2.34 -9.32 1.68 -10 1 C-6.42 -1.34 -4.08 -0.93 0 0 Z " fill="#1F4775"
          transform="translate(177,115)"/>
    <path d="M0 0 C0.66 0 1.32 0 2 0 C2.66 1.98 3.32 3.96 4 6 C2.35 5.67 0.7 5.34 -1 5 C-0.67 3.35 -0.34 1.7 0 0 Z "
          fill="#DD7D27" transform="translate(173,67)"/>
</svg>
